<svg width="50" height="40" viewBox="0 0 50 40" fill="none" xmlns="http://www.w3.org/2000/svg">
<g clip-path="url(#clip0)">
<path d="M17.7217 6.55057C17.8175 11.3564 17.907 16.1623 18.0029 20.9682C18.0476 23.3456 18.0924 25.723 18.1435 28.1003C18.169 29.2635 18.1882 30.4266 18.2138 31.5833C18.2266 32.216 18.2393 32.8487 18.2521 33.4878C18.2585 33.8073 18.2649 34.1205 18.2713 34.44C18.2713 34.5486 18.2777 34.6509 18.2777 34.7595C18.2713 35.2389 18.2905 35.1813 18.3352 34.5998C18.61 34.1269 18.8848 33.6603 19.1596 33.1874C19.1149 33.2258 19.0765 33.2705 19.0318 33.3088C19.7859 32.9957 20.54 32.6825 21.2941 32.3758C21.2558 32.3758 21.2111 32.3694 21.1727 32.3694C21.9268 32.6825 22.6809 32.9957 23.4351 33.3024C23.4031 33.2705 23.3775 33.2385 23.3456 33.2066C23.6204 33.6795 23.8952 34.146 24.17 34.6189C24.1636 34.5806 24.1572 34.5423 24.1508 34.5039C23.876 35.5392 23.6012 36.5745 23.3264 37.6098C23.352 37.5907 23.3775 37.5715 23.4031 37.5459C24.726 36.5106 24.5726 34.1013 23.4031 33.0276C22.0035 31.7431 20.2908 31.922 18.8848 33.0276C18.8592 33.0468 18.8337 33.066 18.8081 33.0915C17.8942 33.8073 17.7856 35.1686 17.9837 36.1975C18.2713 37.6674 19.7348 38.7218 21.1727 38.7538C22.7001 38.7857 24.055 37.7568 24.5023 36.2933C24.9113 34.9513 24.6429 33.2897 24.6174 31.9029C24.5598 29.1037 24.5087 26.3045 24.4512 23.5054C24.3425 17.8559 24.2339 12.2064 24.1189 6.55057C24.0869 4.88257 22.6746 3.27848 20.9235 3.35517C19.2107 3.42547 17.6833 4.75475 17.7217 6.55057Z" fill="#0D96FE"/>
<path d="M3.19484 6.4044C6.30715 6.69199 9.41308 6.99235 12.5126 7.3758C12.8705 7.42054 13.222 7.46527 13.5799 7.51001C13.7844 7.53557 13.9889 7.56113 14.187 7.59309C14.0528 7.57392 13.6054 7.51001 14.2509 7.60587C15.0114 7.71451 15.7719 7.82316 16.526 7.94458C18.0918 8.19382 19.6511 8.46863 21.2041 8.78178C22.7059 9.08853 24.2014 9.42725 25.6841 9.81709C26.3359 9.98964 26.9814 10.1622 27.6269 10.3539C27.9783 10.4626 28.3235 10.5712 28.6686 10.699C28.8411 10.7629 29.0073 10.8268 29.1798 10.8907C28.905 10.7885 28.8858 10.7565 29.167 10.8907C29.493 11.0505 29.8125 11.2103 30.1257 11.402C30.2407 11.4723 30.3557 11.5426 30.4708 11.6193C30.5666 11.6832 30.9884 12.0475 30.6817 11.7599C30.3877 11.4851 30.7008 11.7855 30.7264 11.8238C30.5858 11.6193 30.4388 11.4212 30.3941 11.1719C30.311 10.7629 30.3941 10.3411 30.5091 9.96407C30.4644 10.0408 30.4132 10.1175 30.3685 10.2005C30.5666 9.96407 30.5922 9.92573 30.4452 10.0983C30.0042 10.5201 29.6016 10.9738 29.1415 11.3828C28.9114 11.5809 28.6749 11.7727 28.4449 11.9708C28.9242 11.5618 28.5855 11.8621 28.4704 11.9452C28.2915 12.073 28.1189 12.2009 27.94 12.3223C26.7194 13.1723 25.4156 13.8944 24.08 14.5463C23.4089 14.8722 22.7251 15.1854 22.0349 15.4793C21.8751 15.5496 21.709 15.6199 21.5492 15.6902C21.8048 15.5816 21.8943 15.5496 21.5812 15.6774C21.1785 15.8436 20.7695 16.0098 20.3605 16.1759C18.8203 16.8022 17.555 18.3296 18.1301 20.1063C18.7181 21.9213 20.2838 22.5987 22.0605 22.3367C23.0383 22.1961 21.415 22.4006 22.3928 22.2919C22.642 22.2664 22.8849 22.2344 23.1341 22.2088C23.6773 22.1513 24.2206 22.1002 24.7702 22.0619C25.863 21.9852 26.9558 21.9468 28.0486 21.9468C29.0456 21.9468 30.0362 21.9788 31.0268 22.0427C31.57 22.0746 32.1196 22.1194 32.6628 22.1769C32.912 22.2025 33.1549 22.228 33.4041 22.2536C33.6023 22.2791 33.8004 22.2983 33.9985 22.3239C33.6917 22.2791 33.6534 22.2791 33.8898 22.3111C35.9732 22.6498 38.0439 23.0396 40.0761 23.6404C40.434 23.7426 40.7855 23.8577 41.1306 23.9855C41.3415 24.0622 41.9806 24.1644 41.2009 23.9983C41.3671 24.0366 41.5524 24.158 41.7122 24.2347C42.0764 24.4137 42.4279 24.6118 42.7667 24.8355C42.8817 24.9121 43.0031 25.0272 43.1245 25.0847C42.4152 24.7204 43.067 25.0655 43.2715 25.2828C43.2524 25.2636 43.5527 25.5768 43.5463 25.596C43.4633 25.4937 43.3802 25.3851 43.2907 25.2828C43.3674 25.3979 43.4377 25.5129 43.508 25.6343C43.8595 26.1456 43.4632 25.1742 43.476 25.5384C43.4824 25.6535 43.6805 25.9538 43.6166 26.0497C43.6038 25.9347 43.5847 25.8133 43.5719 25.6982C43.5847 25.8644 43.5847 26.0305 43.5783 26.1967C43.5911 26.6249 43.6869 26.2798 43.5975 26.0881C43.6422 26.1775 43.4377 26.7335 43.3866 26.8102C43.802 26.2031 43.361 26.8038 43.2651 26.9636C43.1884 27.0978 42.6772 27.6985 43.1693 27.1489C43.0287 27.3087 42.8817 27.4685 42.7283 27.6155C42.5685 27.7688 42.4024 27.9158 42.2362 28.0564C42.7986 27.5835 42.1212 28.1139 42.0253 28.1778C41.6483 28.4207 41.2648 28.638 40.8686 28.8361C40.6705 28.9384 40.466 29.0342 40.2615 29.1237C40.14 29.1812 40.0186 29.2323 39.8972 29.2898C40.2487 29.1429 40.2551 29.1365 39.9228 29.2771C35.9988 30.7725 31.9662 31.795 27.8122 32.4277C27.5246 32.4725 27.2306 32.5108 26.943 32.5555C25.9844 32.6961 27.5949 32.4789 26.6299 32.5939C26.0483 32.6642 25.4668 32.7345 24.8852 32.7984C23.7157 32.9262 22.5462 33.0349 21.3767 33.1307C18.9354 33.3288 16.4941 33.4694 14.0528 33.61C12.3848 33.7059 10.7743 35.0096 10.8574 36.8054C10.9341 38.4543 12.2634 40.1031 14.0528 40.0008C23.8052 39.4448 33.794 38.8121 42.8817 34.9137C45.1824 33.9296 47.2658 32.5364 48.6526 30.4082C50.18 28.0756 50.3973 25.0783 49.1255 22.5923C47.0613 18.5469 41.8656 17.3071 37.7946 16.5146C31.9982 15.3899 26.1953 15.3132 20.3669 16.1631C20.9357 18.2146 21.4981 20.2724 22.0669 22.3239C25.0769 21.1032 28.1317 19.8634 30.8414 18.0484C33.8195 16.0609 38.651 12.2328 35.9732 8.20021C33.9282 5.12624 29.5569 4.16123 26.2017 3.34321C22.7251 2.49323 19.1974 1.87972 15.6505 1.38762C11.5093 0.818843 7.35525 0.39705 3.19484 0.0136025C1.52684 -0.139777 -0.0708615 1.59213 -0.000562719 3.209C0.0825176 5.06872 1.4118 6.23824 3.19484 6.4044Z" fill="#0D96FE"/>
</g>
<defs>
<clipPath id="clip0">
<rect width="49.9505" height="40" fill="white"/>
</clipPath>
</defs>
</svg>
