<?xml version="1.0" encoding="UTF-8" standalone="no"?>
<svg
   xmlns:dc="http://purl.org/dc/elements/1.1/"
   xmlns:cc="http://creativecommons.org/ns#"
   xmlns:rdf="http://www.w3.org/1999/02/22-rdf-syntax-ns#"
   xmlns:svg="http://www.w3.org/2000/svg"
   xmlns="http://www.w3.org/2000/svg"
   xmlns:sodipodi="http://sodipodi.sourceforge.net/DTD/sodipodi-0.dtd"
   xmlns:inkscape="http://www.inkscape.org/namespaces/inkscape"
   width="210mm"
   height="210mm"
   viewBox="0 0 210 210"
   version="1.1"
   id="svg8"
   inkscape:version="1.0.2-2 (e86c870879, 2021-01-15)"
   sodipodi:docname="homeScreenLogo.svg">
  <defs
     id="defs2">
    <clipPath
       id="clip0">
      <rect
         width="49.9505"
         height="40"
         fill="#ffffff"
         id="rect33"
         x="0"
         y="0" />
    </clipPath>
  </defs>
  <sodipodi:namedview
     id="base"
     pagecolor="#ffffff"
     bordercolor="#666666"
     borderopacity="1.0"
     inkscape:pageopacity="0.0"
     inkscape:pageshadow="2"
     inkscape:zoom="0.7"
     inkscape:cx="166.02937"
     inkscape:cy="528.69194"
     inkscape:document-units="mm"
     inkscape:current-layer="layer1"
     inkscape:document-rotation="0"
     showgrid="false"
     inkscape:window-width="1904"
     inkscape:window-height="1001"
     inkscape:window-x="2132"
     inkscape:window-y="24"
     inkscape:window-maximized="0" />
  <metadata
     id="metadata5">
    <rdf:RDF>
      <cc:Work
         rdf:about="">
        <dc:format>image/svg+xml</dc:format>
        <dc:type
           rdf:resource="http://purl.org/dc/dcmitype/StillImage" />
        <dc:title></dc:title>
      </cc:Work>
    </rdf:RDF>
  </metadata>
  <g
     inkscape:label="Layer 1"
     inkscape:groupmode="layer"
     id="layer1">
    <ellipse
       style="fill:#0d96fe;fill-opacity:0.3;fill-rule:evenodd;stroke-width:0.461844"
       id="path51"
       cx="92.698936"
       cy="96.307991"
       rx="92.698936"
       ry="92.699181" />
    <ellipse
       style="fill:#0d96fe;fill-opacity:1;fill-rule:evenodd;stroke-width:0.448648"
       id="path51-9"
       cx="119.84282"
       cy="115.21928"
       rx="90.0504"
       ry="90.050606" />
    <g
       style="fill:none"
       id="g49"
       transform="matrix(1.7276225,0,0,1.7276267,106.14411,105.02938)">
      <g
         clip-path="url(#clip0)"
         id="g31">
        <path
           d="m 17.7217,6.55057 c 0.0958,4.80583 0.1853,9.61173 0.2812,14.41763 0.0447,2.3774 0.0895,4.7548 0.1406,7.1321 0.0255,1.1632 0.0447,2.3263 0.0703,3.483 0.0128,0.6327 0.0255,1.2654 0.0383,1.9045 0.0064,0.3195 0.0128,0.6327 0.0192,0.9522 0,0.1086 0.0064,0.2109 0.0064,0.3195 -0.0064,0.4794 0.0128,0.4218 0.0575,-0.1597 0.2748,-0.4729 0.5496,-0.9395 0.8244,-1.4124 -0.0447,0.0384 -0.0831,0.0831 -0.1278,0.1214 0.7541,-0.3131 1.5082,-0.6263 2.2623,-0.933 -0.0383,0 -0.083,-0.0064 -0.1214,-0.0064 0.7541,0.3131 1.5082,0.6263 2.2624,0.933 -0.032,-0.0319 -0.0576,-0.0639 -0.0895,-0.0958 0.2748,0.4729 0.5496,0.9394 0.8244,1.4123 -0.0064,-0.0383 -0.0128,-0.0766 -0.0192,-0.115 -0.2748,1.0353 -0.5496,2.0706 -0.8244,3.1059 0.0256,-0.0191 0.0511,-0.0383 0.0767,-0.0639 1.3229,-1.0353 1.1695,-3.4446 0,-4.5183 -1.3996,-1.2845 -3.1123,-1.1056 -4.5183,0 -0.0256,0.0192 -0.0511,0.0384 -0.0767,0.0639 -0.9139,0.7158 -1.0225,2.0771 -0.8244,3.106 0.2876,1.4699 1.7511,2.5243 3.189,2.5563 1.5274,0.0319 2.8823,-0.997 3.3296,-2.4605 0.409,-1.342 0.1406,-3.0036 0.1151,-4.3904 -0.0576,-2.7992 -0.1087,-5.5984 -0.1662,-8.3975 -0.1087,-5.6495 -0.2173,-11.299 -0.3323,-16.95483 -0.032,-1.668 -1.4443,-3.27209 -3.1954,-3.1954 -1.7128,0.0703 -3.2402,1.39958 -3.2018,3.1954 z"
           fill="#ffffff"
           id="path27" />
        <path
           d="m 3.19484,6.4044 c 3.11232,0.28759 6.21825,0.58795 9.31776,0.9714 0.3579,0.04474 0.7094,0.08947 1.0673,0.13421 0.2045,0.02556 0.409,0.05112 0.6071,0.08308 -0.1342,-0.01917 -0.5815,-0.08308 0.0639,0.01278 0.7605,0.10864 1.521,0.21729 2.2751,0.33871 1.5658,0.24924 3.1251,0.52405 4.6781,0.8372 1.5018,0.30675 2.9973,0.64547 4.48,1.03531 0.6518,0.17255 1.2973,0.34511 1.9428,0.53681 0.3515,0.1087 0.6966,0.2173 1.0417,0.3451 0.1725,0.0639 0.3387,0.1278 0.5112,0.1917 -0.2748,-0.1022 -0.294,-0.1342 -0.0128,0 0.326,0.1598 0.6455,0.3196 0.9587,0.5113 0.115,0.0703 0.23,0.1406 0.3451,0.2173 0.0958,0.0639 0.5176,0.4282 0.2109,0.1406 -0.294,-0.2748 0.0191,0.0256 0.0447,0.0639 -0.1406,-0.2045 -0.2876,-0.4026 -0.3323,-0.6519 -0.0831,-0.409 0,-0.8308 0.115,-1.20783 -0.0447,0.07673 -0.0958,0.15343 -0.1406,0.23643 0.1981,-0.23643 0.2237,-0.27477 0.0767,-0.1022 -0.441,0.4218 -0.8436,0.8755 -1.3037,1.2845 -0.2301,0.1981 -0.4665,0.3899 -0.6966,0.588 0.4793,-0.409 0.1406,-0.1087 0.0255,-0.0256 -0.1789,0.1278 -0.3514,0.2557 -0.5304,0.3771 -1.2206,0.85 -2.5244,1.5721 -3.86,2.224 -0.6711,0.3259 -1.3549,0.6391 -2.0451,0.933 -0.1598,0.0703 -0.3259,0.1406 -0.4857,0.2109 0.2556,-0.1086 0.3451,-0.1406 0.032,-0.0128 -0.4027,0.1662 -0.8117,0.3324 -1.2207,0.4985 -1.5402,0.6263 -2.8055,2.1537 -2.2304,3.9304 0.588,1.815 2.1537,2.4924 3.9304,2.2304 0.9778,-0.1406 -0.6455,0.0639 0.3323,-0.0448 0.2492,-0.0255 0.4921,-0.0575 0.7413,-0.0831 0.5433,-0.0575 1.0865,-0.1086 1.6361,-0.1469 1.0928,-0.0767 2.1856,-0.1151 3.2785,-0.1151 0.9969,0 1.9875,0.032 2.9781,0.0959 0.5432,0.0319 1.0928,0.0767 1.636,0.1342 0.2493,0.0256 0.4921,0.0511 0.7413,0.0767 0.1982,0.0255 0.3963,0.0447 0.5944,0.0703 -0.3068,-0.0448 -0.3451,-0.0448 -0.1087,-0.0128 2.0834,0.3387 4.1541,0.7285 6.1863,1.3293 0.3579,0.1022 0.7094,0.2173 1.0545,0.3451 0.2109,0.0767 0.85,0.1789 0.0703,0.0128 0.1662,0.0383 0.3515,0.1597 0.5113,0.2364 0.3643,0.179 0.7157,0.3771 1.0545,0.6008 0.115,0.0766 0.2364,0.1917 0.3578,0.2492 -0.7093,-0.3643 -0.0575,-0.0192 0.147,0.1981 -0.0191,-0.0192 0.2812,0.294 0.2748,0.3132 -0.083,-0.1023 -0.1661,-0.2109 -0.2556,-0.3132 0.0767,0.1151 0.147,0.2301 0.2173,0.3515 0.3515,0.5113 -0.0447,-0.4601 -0.032,-0.0959 0.0064,0.1151 0.2045,0.4154 0.1406,0.5113 -0.0127,-0.115 -0.0319,-0.2364 -0.0447,-0.3515 0.0128,0.1662 0.0128,0.3323 0.0064,0.4985 0.0128,0.4282 0.1086,0.0831 0.0192,-0.1086 0.0447,0.0894 -0.1598,0.6454 -0.2109,0.7221 0.4154,-0.6071 -0.0256,-0.0064 -0.1215,0.1534 -0.0766,0.1342 -0.5879,0.7349 -0.0958,0.1853 -0.1406,0.1598 -0.2876,0.3196 -0.441,0.4666 -0.1598,0.1533 -0.3259,0.3003 -0.4921,0.4409 0.5624,-0.4729 -0.115,0.0575 -0.2109,0.1214 -0.377,0.2429 -0.7605,0.4602 -1.1567,0.6583 -0.1981,0.1023 -0.4026,0.1981 -0.6071,0.2876 -0.1215,0.0575 -0.2429,0.1086 -0.3643,0.1661 0.3515,-0.1469 0.3579,-0.1533 0.0256,-0.0127 -3.924,1.4954 -7.9566,2.5179 -12.1106,3.1506 -0.2876,0.0448 -0.5816,0.0831 -0.8692,0.1278 -0.9586,0.1406 0.6519,-0.0766 -0.3131,0.0384 -0.5816,0.0703 -1.1631,0.1406 -1.7447,0.2045 -1.1695,0.1278 -2.339,0.2365 -3.5085,0.3323 -2.4413,0.1981 -4.8826,0.3387 -7.3239,0.4793 -1.668,0.0959 -3.2785,1.3996 -3.1954,3.1954 0.0767,1.6489 1.406,3.2977 3.1954,3.1954 9.7524,-0.556 19.7412,-1.1887 28.8289,-5.0871 2.3007,-0.9841 4.3841,-2.3773 5.7709,-4.5055 1.5274,-2.3326 1.7447,-5.3299 0.4729,-7.8159 -2.0642,-4.0454 -7.2599,-5.2852 -11.3309,-6.0777 -5.7964,-1.1247 -11.5993,-1.2014 -17.4277,-0.3515 0.5688,2.0515 1.1312,4.1093 1.7,6.1608 3.01,-1.2207 6.0648,-2.4605 8.7745,-4.2755 2.9781,-1.9875 7.8096,-5.8156 5.1318,-9.84819 C 33.9282,5.12624 29.5569,4.16123 26.2017,3.34321 22.7251,2.49323 19.1974,1.87972 15.6505,1.38762 11.5093,0.818843 7.35525,0.39705 3.19484,0.0136025 1.52685,-0.139777 -0.0708539,1.59213 -5.55089e-4,3.209 0.0825253,5.06872 1.41181,6.23824 3.19484,6.4044 Z"
           fill="#ffffff"
           id="path29" />
      </g>
    </g>
  </g>
</svg>
