<svg width="100" height="100" viewBox="0 0 100 100" fill="none" xmlns="http://www.w3.org/2000/svg">
<rect width="100" height="100" rx="15" fill="white"/>
<path d="M15 25C15 19.4772 19.4772 15 25 15H63.7082C66.1512 15 68.5097 15.8943 70.3385 17.5141L81.6303 27.5155C83.7732 29.4134 85 32.1388 85 35.0013V75C85 80.5229 80.5229 85 75 85H25C19.4772 85 15 80.5229 15 75V25Z" fill="#0D96FE"/>
<g clip-path="url(#clip0)">
<path d="M62.5166 55.3499C61.8287 54.2872 60.9605 53.7487 59.7647 53.0259C59.13 52.641 58.2516 52.168 57.1398 51.738C56.976 51.6745 56.9452 51.4513 57.0886 51.349C58.7102 50.1982 59.8241 49.0168 60.5387 48.1445C62.0641 46.2833 62.3917 45.0793 62.4716 44.764C62.4736 44.7538 62.4777 44.7435 62.4798 44.7313C62.8402 43.2775 62.5289 41.7459 61.7017 40.499C61.3823 40.0157 60.9871 39.5059 60.4998 39.0001C59.1607 37.6119 57.7888 36.9546 56.9637 36.5677C56.3904 36.2994 55.5427 35.9513 52.2092 35.2408C51.0032 34.9828 49.1236 34.5633 47.1436 34.2336C42.854 32.9396 38.851 31.7559 34.5614 30.4618C33.6441 30.0441 32.866 29.9663 32.2558 30.0093C29.68 30.1957 27.3396 32.7694 26.0742 36.496C25.89 37.0406 26.0579 37.6406 26.5104 37.9968L26.5206 38.005C27.7839 39.0001 29.3544 38.9244 30.2431 38.8834C30.2431 38.8834 34.8787 38.6684 37.604 38.6132C38.6237 38.5927 40.2003 38.605 42.1619 38.8179C41.9571 40.2573 41.7053 42.3336 41.5558 44.85C41.3552 48.2449 41.4432 50.7736 41.5558 54.0333C41.7585 59.8996 42.0923 59.1031 42.0595 62.0536C42.0513 62.7375 42.1967 63.8657 42.4854 66.1221C42.6042 67.0496 42.7188 67.8297 43.3188 68.528C43.9515 69.2651 44.7705 69.5046 45.0039 69.5702C45.7144 69.7688 46.472 69.7381 48.5687 68.9887C49.5331 68.6447 50.8149 68.1369 52.2891 67.3998C54.912 66.2511 56.9596 65.0307 58.4113 64.0684C61.2042 62.2153 62.0437 61.1424 62.5576 60.0777C62.8115 59.5515 62.9814 59.0396 63.092 58.5707C63.3541 57.4752 63.1432 56.3204 62.533 55.3724L62.5166 55.3499ZM47.6964 40.0178C57.7909 41.4224 56.8203 43.2734 56.8203 43.2734C57.1684 45.8021 47.1436 49.8379 47.1436 49.8379L47.6964 40.0178ZM47.7968 63.1204L47.332 56.1402C54.9325 55.9334 56.7425 57.9503 56.7425 57.9503C55.1393 60.0695 47.7968 63.1204 47.7968 63.1204Z" fill="white"/>
</g>
<defs>
<clipPath id="clip0">
<rect width="37.2" height="39.6735" fill="white" transform="translate(26 30)"/>
</clipPath>
</defs>
</svg>
