<svg width="100" height="100" viewBox="0 0 100 100" fill="none" xmlns="http://www.w3.org/2000/svg">
<rect width="100" height="100" rx="15" fill="black"/>
<path d="M15 25C15 19.4772 19.4772 15 25 15H63.7082C66.1512 15 68.5097 15.8943 70.3385 17.5141L81.6303 27.5155C83.7732 29.4134 85 32.1388 85 35.0013V75C85 80.5229 80.5229 85 75 85H25C19.4772 85 15 80.5229 15 75V25Z" fill="white"/>
<g clip-path="url(#clip0)">
<path d="M42.7217 36.5506C42.8175 41.3564 42.907 46.1623 43.0029 50.9682C43.0476 53.3456 43.0924 55.723 43.1435 58.1003C43.169 59.2635 43.1882 60.4266 43.2138 61.5833C43.2266 62.216 43.2393 62.8487 43.2521 63.4878C43.2585 63.8073 43.2649 64.1205 43.2713 64.44C43.2713 64.5486 43.2777 64.6509 43.2777 64.7595C43.2713 65.2389 43.2905 65.1813 43.3352 64.5998C43.61 64.1269 43.8848 63.6603 44.1596 63.1874C44.1149 63.2258 44.0765 63.2705 44.0318 63.3088C44.7859 62.9957 45.54 62.6825 46.2941 62.3758C46.2558 62.3758 46.2111 62.3694 46.1727 62.3694C46.9268 62.6825 47.6809 62.9957 48.4351 63.3024C48.4031 63.2705 48.3775 63.2385 48.3456 63.2066C48.6204 63.6795 48.8952 64.146 49.17 64.6189C49.1636 64.5806 49.1572 64.5423 49.1508 64.5039C48.876 65.5392 48.6012 66.5745 48.3264 67.6098C48.352 67.5907 48.3775 67.5715 48.4031 67.5459C49.726 66.5106 49.5726 64.1013 48.4031 63.0276C47.0035 61.7431 45.2908 61.922 43.8848 63.0276C43.8592 63.0468 43.8337 63.066 43.8081 63.0915C42.8942 63.8073 42.7856 65.1686 42.9837 66.1975C43.2713 67.6674 44.7348 68.7218 46.1727 68.7538C47.7001 68.7857 49.055 67.7568 49.5023 66.2933C49.9113 64.9513 49.6429 63.2897 49.6174 61.9029C49.5598 59.1037 49.5087 56.3045 49.4512 53.5054C49.3425 47.8559 49.2339 42.2064 49.1189 36.5506C49.0869 34.8826 47.6746 33.2785 45.9235 33.3552C44.2107 33.4255 42.6833 34.7548 42.7217 36.5506Z" fill="black"/>
<path d="M28.1948 36.4044C31.3072 36.692 34.4131 36.9924 37.5126 37.3758C37.8705 37.4205 38.222 37.4653 38.5799 37.51C38.7844 37.5356 38.9889 37.5611 39.187 37.5931C39.0528 37.5739 38.6054 37.51 39.2509 37.6059C40.0114 37.7145 40.7719 37.8232 41.526 37.9446C43.0918 38.1938 44.6511 38.4686 46.2041 38.7818C47.7059 39.0885 49.2014 39.4272 50.6841 39.8171C51.3359 39.9896 51.9814 40.1622 52.6269 40.3539C52.9783 40.4626 53.3235 40.5712 53.6686 40.699C53.8411 40.7629 54.0073 40.8268 54.1798 40.8907C53.905 40.7885 53.8858 40.7565 54.167 40.8907C54.493 41.0505 54.8125 41.2103 55.1257 41.402C55.2407 41.4723 55.3557 41.5426 55.4708 41.6193C55.5666 41.6832 55.9884 42.0475 55.6817 41.7599C55.3877 41.4851 55.7008 41.7855 55.7264 41.8238C55.5858 41.6193 55.4388 41.4212 55.3941 41.1719C55.311 40.7629 55.3941 40.3411 55.5091 39.9641C55.4644 40.0408 55.4132 40.1175 55.3685 40.2005C55.5666 39.9641 55.5922 39.9257 55.4452 40.0983C55.0042 40.5201 54.6016 40.9738 54.1415 41.3828C53.9114 41.5809 53.6749 41.7727 53.4449 41.9708C53.9242 41.5618 53.5855 41.8621 53.4704 41.9452C53.2915 42.073 53.1189 42.2009 52.94 42.3223C51.7194 43.1723 50.4156 43.8944 49.08 44.5463C48.4089 44.8722 47.7251 45.1854 47.0349 45.4793C46.8751 45.5496 46.709 45.6199 46.5492 45.6902C46.8048 45.5816 46.8943 45.5496 46.5812 45.6774C46.1785 45.8436 45.7695 46.0098 45.3605 46.1759C43.8203 46.8022 42.555 48.3296 43.1301 50.1063C43.7181 51.9213 45.2838 52.5987 47.0605 52.3367C48.0383 52.1961 46.415 52.4006 47.3928 52.2919C47.642 52.2664 47.8849 52.2344 48.1341 52.2088C48.6773 52.1513 49.2206 52.1002 49.7702 52.0619C50.863 51.9852 51.9558 51.9468 53.0486 51.9468C54.0456 51.9468 55.0362 51.9788 56.0268 52.0427C56.57 52.0746 57.1196 52.1194 57.6628 52.1769C57.912 52.2025 58.1549 52.228 58.4041 52.2536C58.6023 52.2791 58.8004 52.2983 58.9985 52.3239C58.6917 52.2791 58.6534 52.2791 58.8898 52.3111C60.9732 52.6498 63.0439 53.0396 65.0761 53.6404C65.434 53.7426 65.7855 53.8577 66.1306 53.9855C66.3415 54.0622 66.9806 54.1644 66.2009 53.9983C66.3671 54.0366 66.5524 54.158 66.7122 54.2347C67.0764 54.4137 67.4279 54.6118 67.7667 54.8355C67.8817 54.9121 68.0031 55.0272 68.1245 55.0847C67.4152 54.7204 68.067 55.0655 68.2715 55.2828C68.2524 55.2636 68.5527 55.5768 68.5463 55.596C68.4633 55.4937 68.3802 55.3851 68.2907 55.2828C68.3674 55.3979 68.4377 55.5129 68.508 55.6343C68.8595 56.1456 68.4632 55.1742 68.476 55.5384C68.4824 55.6535 68.6805 55.9538 68.6166 56.0497C68.6038 55.9347 68.5847 55.8133 68.5719 55.6982C68.5847 55.8644 68.5847 56.0305 68.5783 56.1967C68.5911 56.6249 68.6869 56.2798 68.5975 56.0881C68.6422 56.1775 68.4377 56.7335 68.3866 56.8102C68.802 56.2031 68.361 56.8038 68.2651 56.9636C68.1884 57.0978 67.6772 57.6985 68.1693 57.1489C68.0287 57.3087 67.8817 57.4685 67.7283 57.6155C67.5685 57.7688 67.4024 57.9158 67.2362 58.0564C67.7986 57.5835 67.1212 58.1139 67.0253 58.1778C66.6483 58.4207 66.2648 58.638 65.8686 58.8361C65.6705 58.9384 65.466 59.0342 65.2615 59.1237C65.14 59.1812 65.0186 59.2323 64.8972 59.2898C65.2487 59.1429 65.2551 59.1365 64.9228 59.2771C60.9988 60.7725 56.9662 61.795 52.8122 62.4277C52.5246 62.4725 52.2306 62.5108 51.943 62.5555C50.9844 62.6961 52.5949 62.4789 51.6299 62.5939C51.0483 62.6642 50.4668 62.7345 49.8852 62.7984C48.7157 62.9262 47.5462 63.0349 46.3767 63.1307C43.9354 63.3288 41.4941 63.4694 39.0528 63.61C37.3848 63.7059 35.7743 65.0096 35.8574 66.8054C35.9341 68.4543 37.2634 70.1031 39.0528 70.0008C48.8052 69.4448 58.794 68.8121 67.8817 64.9137C70.1824 63.9296 72.2658 62.5364 73.6526 60.4082C75.18 58.0756 75.3973 55.0783 74.1255 52.5923C72.0613 48.5469 66.8656 47.3071 62.7946 46.5146C56.9982 45.3899 51.1953 45.3132 45.3669 46.1631C45.9357 48.2146 46.4981 50.2724 47.0669 52.3239C50.0769 51.1032 53.1317 49.8634 55.8414 48.0484C58.8195 46.0609 63.651 42.2328 60.9732 38.2002C58.9282 35.1262 54.5569 34.1612 51.2017 33.3432C47.7251 32.4932 44.1974 31.8797 40.6505 31.3876C36.5093 30.8188 32.3552 30.3971 28.1948 30.0136C26.5268 29.8602 24.9291 31.5921 24.9994 33.209C25.0825 35.0687 26.4118 36.2382 28.1948 36.4044Z" fill="black"/>
</g>
<defs>
<clipPath id="clip0">
<rect width="49.9505" height="40" fill="white" transform="translate(25 30)"/>
</clipPath>
</defs>
</svg>
